<svg width="160" height="36" viewBox="0 0 160 36" fill="none" xmlns="http://www.w3.org/2000/svg">
<mask id="path-1-outside-1_102_36" maskUnits="userSpaceOnUse" x="0" y="0" width="160" height="36" fill="black">
<rect fill="white" width="160" height="36"/>
<path d="M19.5625 13.1193C19.4678 12.0777 19.0464 11.268 18.2983 10.6903C17.5597 10.1032 16.5038 9.80966 15.1307 9.80966C14.2216 9.80966 13.464 9.92803 12.858 10.1648C12.2519 10.4015 11.7973 10.7282 11.4943 11.1449C11.1913 11.5521 11.035 12.0208 11.0256 12.5511C11.0066 12.9867 11.0919 13.3703 11.2812 13.7017C11.4801 14.0331 11.7642 14.3267 12.1335 14.5824C12.5123 14.8286 12.9669 15.0464 13.4972 15.2358C14.0275 15.4252 14.6241 15.5909 15.2869 15.733L17.7869 16.3011C19.2263 16.6136 20.4953 17.0303 21.5938 17.5511C22.7017 18.072 23.6297 18.6922 24.3778 19.4119C25.1354 20.1316 25.7083 20.9602 26.0966 21.8977C26.4849 22.8352 26.6837 23.8864 26.6932 25.0511C26.6837 26.8883 26.2197 28.465 25.3011 29.7812C24.3826 31.0975 23.0616 32.1061 21.3381 32.8068C19.6241 33.5076 17.5549 33.858 15.1307 33.858C12.697 33.858 10.5758 33.4934 8.76705 32.7642C6.95833 32.035 5.55208 30.9271 4.5483 29.4403C3.54451 27.9536 3.02841 26.0739 3 23.8011H9.73295C9.78977 24.7386 10.0407 25.5199 10.4858 26.1449C10.9309 26.7699 11.5417 27.2434 12.3182 27.5653C13.1042 27.8873 14.0133 28.0483 15.0455 28.0483C15.9924 28.0483 16.7973 27.9205 17.4602 27.6648C18.1326 27.4091 18.6487 27.054 19.0085 26.5994C19.3684 26.1449 19.553 25.6241 19.5625 25.0369C19.553 24.4877 19.3826 24.0189 19.0511 23.6307C18.7197 23.233 18.2083 22.892 17.517 22.608C16.8352 22.3144 15.964 22.0445 14.9034 21.7983L11.8636 21.0881C9.3447 20.5104 7.3608 19.5777 5.91193 18.2898C4.46307 16.9924 3.74337 15.2405 3.75284 13.0341C3.74337 11.2348 4.22633 9.65814 5.2017 8.30398C6.17708 6.94981 7.52652 5.89394 9.25 5.13636C10.9735 4.37879 12.9384 4 15.1449 4C17.3987 4 19.3542 4.38352 21.0114 5.15057C22.678 5.90814 23.9706 6.97349 24.8892 8.34659C25.8078 9.7197 26.2765 11.3106 26.2955 13.1193H19.5625Z"/>
<path d="M35.6385 33.4886H28.0817L37.897 4.39773H47.2578L57.0732 33.4886H49.5163L42.6839 11.7273H42.4567L35.6385 33.4886ZM34.63 22.0398H50.4254V27.3807H34.63V22.0398Z"/>
<path d="M75.0312 13.1193C74.9366 12.0777 74.5151 11.268 73.767 10.6903C73.0284 10.1032 71.9725 9.80966 70.5994 9.80966C69.6903 9.80966 68.9328 9.92803 68.3267 10.1648C67.7206 10.4015 67.2661 10.7282 66.9631 11.1449C66.66 11.5521 66.5038 12.0208 66.4943 12.5511C66.4754 12.9867 66.5606 13.3703 66.75 13.7017C66.9489 14.0331 67.233 14.3267 67.6023 14.5824C67.9811 14.8286 68.4356 15.0464 68.9659 15.2358C69.4962 15.4252 70.0928 15.5909 70.7557 15.733L73.2557 16.3011C74.6951 16.6136 75.964 17.0303 77.0625 17.5511C78.1705 18.072 79.0985 18.6922 79.8466 19.4119C80.6042 20.1316 81.1771 20.9602 81.5653 21.8977C81.9536 22.8352 82.1525 23.8864 82.1619 25.0511C82.1525 26.8883 81.6885 28.465 80.7699 29.7812C79.8513 31.0975 78.5303 32.1061 76.8068 32.8068C75.0928 33.5076 73.0237 33.858 70.5994 33.858C68.1657 33.858 66.0445 33.4934 64.2358 32.7642C62.4271 32.035 61.0208 30.9271 60.017 29.4403C59.0133 27.9536 58.4972 26.0739 58.4688 23.8011H65.2017C65.2585 24.7386 65.5095 25.5199 65.9545 26.1449C66.3996 26.7699 67.0104 27.2434 67.7869 27.5653C68.5729 27.8873 69.482 28.0483 70.5142 28.0483C71.4612 28.0483 72.2661 27.9205 72.929 27.6648C73.6013 27.4091 74.1174 27.054 74.4773 26.5994C74.8371 26.1449 75.0218 25.6241 75.0312 25.0369C75.0218 24.4877 74.8513 24.0189 74.5199 23.6307C74.1884 23.233 73.6771 22.892 72.9858 22.608C72.304 22.3144 71.4328 22.0445 70.3722 21.7983L67.3324 21.0881C64.8135 20.5104 62.8295 19.5777 61.3807 18.2898C59.9318 16.9924 59.2121 15.2405 59.2216 13.0341C59.2121 11.2348 59.6951 9.65814 60.6705 8.30398C61.6458 6.94981 62.9953 5.89394 64.7188 5.13636C66.4422 4.37879 68.4072 4 70.6136 4C72.8674 4 74.8229 4.38352 76.4801 5.15057C78.1468 5.90814 79.4394 6.97349 80.358 8.34659C81.2765 9.7197 81.7453 11.3106 81.7642 13.1193H75.0312Z"/>
<path d="M101.438 13.1193C101.343 12.0777 100.921 11.268 100.173 10.6903C99.4347 10.1032 98.3788 9.80966 97.0057 9.80966C96.0966 9.80966 95.339 9.92803 94.733 10.1648C94.1269 10.4015 93.6723 10.7282 93.3693 11.1449C93.0663 11.5521 92.91 12.0208 92.9006 12.5511C92.8816 12.9867 92.9669 13.3703 93.1562 13.7017C93.3551 14.0331 93.6392 14.3267 94.0085 14.5824C94.3873 14.8286 94.8419 15.0464 95.3722 15.2358C95.9025 15.4252 96.4991 15.5909 97.1619 15.733L99.6619 16.3011C101.101 16.6136 102.37 17.0303 103.469 17.5511C104.577 18.072 105.505 18.6922 106.253 19.4119C107.01 20.1316 107.583 20.9602 107.972 21.8977C108.36 22.8352 108.559 23.8864 108.568 25.0511C108.559 26.8883 108.095 28.465 107.176 29.7812C106.258 31.0975 104.937 32.1061 103.213 32.8068C101.499 33.5076 99.4299 33.858 97.0057 33.858C94.572 33.858 92.4508 33.4934 90.642 32.7642C88.8333 32.035 87.4271 30.9271 86.4233 29.4403C85.4195 27.9536 84.9034 26.0739 84.875 23.8011H91.608C91.6648 24.7386 91.9157 25.5199 92.3608 26.1449C92.8059 26.7699 93.4167 27.2434 94.1932 27.5653C94.9792 27.8873 95.8883 28.0483 96.9205 28.0483C97.8674 28.0483 98.6723 27.9205 99.3352 27.6648C100.008 27.4091 100.524 27.054 100.884 26.5994C101.243 26.1449 101.428 25.6241 101.438 25.0369C101.428 24.4877 101.258 24.0189 100.926 23.6307C100.595 23.233 100.083 22.892 99.392 22.608C98.7102 22.3144 97.839 22.0445 96.7784 21.7983L93.7386 21.0881C91.2197 20.5104 89.2358 19.5777 87.7869 18.2898C86.3381 16.9924 85.6184 15.2405 85.6278 13.0341C85.6184 11.2348 86.1013 9.65814 87.0767 8.30398C88.0521 6.94981 89.4015 5.89394 91.125 5.13636C92.8485 4.37879 94.8134 4 97.0199 4C99.2737 4 101.229 4.38352 102.886 5.15057C104.553 5.90814 105.846 6.97349 106.764 8.34659C107.683 9.7197 108.152 11.3106 108.17 13.1193H101.438Z"/>
<path d="M112.119 33.4886V4.39773H119.151V27.7784H131.253V33.4886H112.119Z"/>
<path d="M134.893 33.4886V4.39773H155.177V10.108H141.924V16.0739H154.14V21.7983H141.924V27.7784H155.177V33.4886H134.893Z"/>
<path d="M21.5625 11.1193C21.4678 10.0777 21.0464 9.26799 20.2983 8.69034C19.5597 8.10322 18.5038 7.80966 17.1307 7.80966C16.2216 7.80966 15.464 7.92803 14.858 8.16477C14.2519 8.40152 13.7973 8.72822 13.4943 9.14489C13.1913 9.55208 13.035 10.0208 13.0256 10.5511C13.0066 10.9867 13.0919 11.3703 13.2812 11.7017C13.4801 12.0331 13.7642 12.3267 14.1335 12.5824C14.5123 12.8286 14.9669 13.0464 15.4972 13.2358C16.0275 13.4252 16.6241 13.5909 17.2869 13.733L19.7869 14.3011C21.2263 14.6136 22.4953 15.0303 23.5938 15.5511C24.7017 16.072 25.6297 16.6922 26.3778 17.4119C27.1354 18.1316 27.7083 18.9602 28.0966 19.8977C28.4849 20.8352 28.6837 21.8864 28.6932 23.0511C28.6837 24.8883 28.2197 26.465 27.3011 27.7812C26.3826 29.0975 25.0616 30.1061 23.3381 30.8068C21.6241 31.5076 19.5549 31.858 17.1307 31.858C14.697 31.858 12.5758 31.4934 10.767 30.7642C8.95833 30.035 7.55208 28.9271 6.5483 27.4403C5.54451 25.9536 5.02841 24.0739 5 21.8011H11.733C11.7898 22.7386 12.0407 23.5199 12.4858 24.1449C12.9309 24.7699 13.5417 25.2434 14.3182 25.5653C15.1042 25.8873 16.0133 26.0483 17.0455 26.0483C17.9924 26.0483 18.7973 25.9205 19.4602 25.6648C20.1326 25.4091 20.6487 25.054 21.0085 24.5994C21.3684 24.1449 21.553 23.6241 21.5625 23.0369C21.553 22.4877 21.3826 22.0189 21.0511 21.6307C20.7197 21.233 20.2083 20.892 19.517 20.608C18.8352 20.3144 17.964 20.0445 16.9034 19.7983L13.8636 19.0881C11.3447 18.5104 9.3608 17.5777 7.91193 16.2898C6.46307 14.9924 5.74337 13.2405 5.75284 11.0341C5.74337 9.23485 6.22633 7.65814 7.2017 6.30398C8.17708 4.94981 9.52652 3.89394 11.25 3.13636C12.9735 2.37879 14.9384 2 17.1449 2C19.3987 2 21.3542 2.38352 23.0114 3.15057C24.678 3.90814 25.9706 4.97349 26.8892 6.34659C27.8078 7.7197 28.2765 9.31061 28.2955 11.1193H21.5625Z"/>
<path d="M37.6385 31.4886H30.0817L39.897 2.39773H49.2578L59.0732 31.4886H51.5163L44.6839 9.72727H44.4567L37.6385 31.4886ZM39.5522 25.3807H49.5163L48.0017 20.2945H41.1458L39.5522 25.3807Z"/>
<path d="M77.0312 11.1193C76.9366 10.0777 76.5151 9.26799 75.767 8.69034C75.0284 8.10322 73.9725 7.80966 72.5994 7.80966C71.6903 7.80966 70.9328 7.92803 70.3267 8.16477C69.7206 8.40152 69.2661 8.72822 68.9631 9.14489C68.66 9.55208 68.5038 10.0208 68.4943 10.5511C68.4754 10.9867 68.5606 11.3703 68.75 11.7017C68.9489 12.0331 69.233 12.3267 69.6023 12.5824C69.9811 12.8286 70.4356 13.0464 70.9659 13.2358C71.4962 13.4252 72.0928 13.5909 72.7557 13.733L75.2557 14.3011C76.6951 14.6136 77.964 15.0303 79.0625 15.5511C80.1705 16.072 81.0985 16.6922 81.8466 17.4119C82.6042 18.1316 83.1771 18.9602 83.5653 19.8977C83.9536 20.8352 84.1525 21.8864 84.1619 23.0511C84.1525 24.8883 83.6885 26.465 82.7699 27.7812C81.8513 29.0975 80.5303 30.1061 78.8068 30.8068C77.0928 31.5076 75.0237 31.858 72.5994 31.858C70.1657 31.858 68.0445 31.4934 66.2358 30.7642C64.4271 30.035 63.0208 28.9271 62.017 27.4403C61.0133 25.9536 60.4972 24.0739 60.4688 21.8011H67.2017C67.2585 22.7386 67.5095 23.5199 67.9545 24.1449C68.3996 24.7699 69.0104 25.2434 69.7869 25.5653C70.5729 25.8873 71.482 26.0483 72.5142 26.0483C73.4612 26.0483 74.2661 25.9205 74.929 25.6648C75.6013 25.4091 76.1174 25.054 76.4773 24.5994C76.8371 24.1449 77.0218 23.6241 77.0312 23.0369C77.0218 22.4877 76.8513 22.0189 76.5199 21.6307C76.1884 21.233 75.6771 20.892 74.9858 20.608C74.304 20.3144 73.4328 20.0445 72.3722 19.7983L69.3324 19.0881C66.8135 18.5104 64.8295 17.5777 63.3807 16.2898C61.9318 14.9924 61.2121 13.2405 61.2216 11.0341C61.2121 9.23485 61.6951 7.65814 62.6705 6.30398C63.6458 4.94981 64.9953 3.89394 66.7188 3.13636C68.4422 2.37879 70.4072 2 72.6136 2C74.8674 2 76.8229 2.38352 78.4801 3.15057C80.1468 3.90814 81.4394 4.97349 82.358 6.34659C83.2765 7.7197 83.7453 9.31061 83.7642 11.1193H77.0312Z"/>
<path d="M103.438 11.1193C103.343 10.0777 102.921 9.26799 102.173 8.69034C101.435 8.10322 100.379 7.80966 99.0057 7.80966C98.0966 7.80966 97.339 7.92803 96.733 8.16477C96.1269 8.40152 95.6723 8.72822 95.3693 9.14489C95.0663 9.55208 94.91 10.0208 94.9006 10.5511C94.8816 10.9867 94.9669 11.3703 95.1562 11.7017C95.3551 12.0331 95.6392 12.3267 96.0085 12.5824C96.3873 12.8286 96.8419 13.0464 97.3722 13.2358C97.9025 13.4252 98.4991 13.5909 99.1619 13.733L101.662 14.3011C103.101 14.6136 104.37 15.0303 105.469 15.5511C106.577 16.072 107.505 16.6922 108.253 17.4119C109.01 18.1316 109.583 18.9602 109.972 19.8977C110.36 20.8352 110.559 21.8864 110.568 23.0511C110.559 24.8883 110.095 26.465 109.176 27.7812C108.258 29.0975 106.937 30.1061 105.213 30.8068C103.499 31.5076 101.43 31.858 99.0057 31.858C96.572 31.858 94.4508 31.4934 92.642 30.7642C90.8333 30.035 89.4271 28.9271 88.4233 27.4403C87.4195 25.9536 86.9034 24.0739 86.875 21.8011H93.608C93.6648 22.7386 93.9157 23.5199 94.3608 24.1449C94.8059 24.7699 95.4167 25.2434 96.1932 25.5653C96.9792 25.8873 97.8883 26.0483 98.9205 26.0483C99.8674 26.0483 100.672 25.9205 101.335 25.6648C102.008 25.4091 102.524 25.054 102.884 24.5994C103.243 24.1449 103.428 23.6241 103.438 23.0369C103.428 22.4877 103.258 22.0189 102.926 21.6307C102.595 21.233 102.083 20.892 101.392 20.608C100.71 20.3144 99.839 20.0445 98.7784 19.7983L95.7386 19.0881C93.2197 18.5104 91.2358 17.5777 89.7869 16.2898C88.3381 14.9924 87.6184 13.2405 87.6278 11.0341C87.6184 9.23485 88.1013 7.65814 89.0767 6.30398C90.0521 4.94981 91.4015 3.89394 93.125 3.13636C94.8485 2.37879 96.8134 2 99.0199 2C101.274 2 103.229 2.38352 104.886 3.15057C106.553 3.90814 107.846 4.97349 108.764 6.34659C109.683 7.7197 110.152 9.31061 110.17 11.1193H103.438Z"/>
<path d="M114.119 31.4886V2.39773H121.151V25.7784H133.253V31.4886H114.119Z"/>
<path d="M136.893 31.4886V2.39773H157.177V8.10795H143.924V14.0739H156.14V19.7983H143.924V25.7784H157.177V31.4886H136.893Z"/>
</mask>
<path d="M19.5625 13.1193C19.4678 12.0777 19.0464 11.268 18.2983 10.6903C17.5597 10.1032 16.5038 9.80966 15.1307 9.80966C14.2216 9.80966 13.464 9.92803 12.858 10.1648C12.2519 10.4015 11.7973 10.7282 11.4943 11.1449C11.1913 11.5521 11.035 12.0208 11.0256 12.5511C11.0066 12.9867 11.0919 13.3703 11.2812 13.7017C11.4801 14.0331 11.7642 14.3267 12.1335 14.5824C12.5123 14.8286 12.9669 15.0464 13.4972 15.2358C14.0275 15.4252 14.6241 15.5909 15.2869 15.733L17.7869 16.3011C19.2263 16.6136 20.4953 17.0303 21.5938 17.5511C22.7017 18.072 23.6297 18.6922 24.3778 19.4119C25.1354 20.1316 25.7083 20.9602 26.0966 21.8977C26.4849 22.8352 26.6837 23.8864 26.6932 25.0511C26.6837 26.8883 26.2197 28.465 25.3011 29.7812C24.3826 31.0975 23.0616 32.1061 21.3381 32.8068C19.6241 33.5076 17.5549 33.858 15.1307 33.858C12.697 33.858 10.5758 33.4934 8.76705 32.7642C6.95833 32.035 5.55208 30.9271 4.5483 29.4403C3.54451 27.9536 3.02841 26.0739 3 23.8011H9.73295C9.78977 24.7386 10.0407 25.5199 10.4858 26.1449C10.9309 26.7699 11.5417 27.2434 12.3182 27.5653C13.1042 27.8873 14.0133 28.0483 15.0455 28.0483C15.9924 28.0483 16.7973 27.9205 17.4602 27.6648C18.1326 27.4091 18.6487 27.054 19.0085 26.5994C19.3684 26.1449 19.553 25.6241 19.5625 25.0369C19.553 24.4877 19.3826 24.0189 19.0511 23.6307C18.7197 23.233 18.2083 22.892 17.517 22.608C16.8352 22.3144 15.964 22.0445 14.9034 21.7983L11.8636 21.0881C9.3447 20.5104 7.3608 19.5777 5.91193 18.2898C4.46307 16.9924 3.74337 15.2405 3.75284 13.0341C3.74337 11.2348 4.22633 9.65814 5.2017 8.30398C6.17708 6.94981 7.52652 5.89394 9.25 5.13636C10.9735 4.37879 12.9384 4 15.1449 4C17.3987 4 19.3542 4.38352 21.0114 5.15057C22.678 5.90814 23.9706 6.97349 24.8892 8.34659C25.8078 9.7197 26.2765 11.3106 26.2955 13.1193H19.5625Z" fill="black"/>
<path d="M35.6385 33.4886H28.0817L37.897 4.39773H47.2578L57.0732 33.4886H49.5163L42.6839 11.7273H42.4567L35.6385 33.4886ZM34.63 22.0398H50.4254V27.3807H34.63V22.0398Z" fill="black"/>
<path d="M75.0312 13.1193C74.9366 12.0777 74.5151 11.268 73.767 10.6903C73.0284 10.1032 71.9725 9.80966 70.5994 9.80966C69.6903 9.80966 68.9328 9.92803 68.3267 10.1648C67.7206 10.4015 67.2661 10.7282 66.9631 11.1449C66.66 11.5521 66.5038 12.0208 66.4943 12.5511C66.4754 12.9867 66.5606 13.3703 66.75 13.7017C66.9489 14.0331 67.233 14.3267 67.6023 14.5824C67.9811 14.8286 68.4356 15.0464 68.9659 15.2358C69.4962 15.4252 70.0928 15.5909 70.7557 15.733L73.2557 16.3011C74.6951 16.6136 75.964 17.0303 77.0625 17.5511C78.1705 18.072 79.0985 18.6922 79.8466 19.4119C80.6042 20.1316 81.1771 20.9602 81.5653 21.8977C81.9536 22.8352 82.1525 23.8864 82.1619 25.0511C82.1525 26.8883 81.6885 28.465 80.7699 29.7812C79.8513 31.0975 78.5303 32.1061 76.8068 32.8068C75.0928 33.5076 73.0237 33.858 70.5994 33.858C68.1657 33.858 66.0445 33.4934 64.2358 32.7642C62.4271 32.035 61.0208 30.9271 60.017 29.4403C59.0133 27.9536 58.4972 26.0739 58.4688 23.8011H65.2017C65.2585 24.7386 65.5095 25.5199 65.9545 26.1449C66.3996 26.7699 67.0104 27.2434 67.7869 27.5653C68.5729 27.8873 69.482 28.0483 70.5142 28.0483C71.4612 28.0483 72.2661 27.9205 72.929 27.6648C73.6013 27.4091 74.1174 27.054 74.4773 26.5994C74.8371 26.1449 75.0218 25.6241 75.0312 25.0369C75.0218 24.4877 74.8513 24.0189 74.5199 23.6307C74.1884 23.233 73.6771 22.892 72.9858 22.608C72.304 22.3144 71.4328 22.0445 70.3722 21.7983L67.3324 21.0881C64.8135 20.5104 62.8295 19.5777 61.3807 18.2898C59.9318 16.9924 59.2121 15.2405 59.2216 13.0341C59.2121 11.2348 59.6951 9.65814 60.6705 8.30398C61.6458 6.94981 62.9953 5.89394 64.7188 5.13636C66.4422 4.37879 68.4072 4 70.6136 4C72.8674 4 74.8229 4.38352 76.4801 5.15057C78.1468 5.90814 79.4394 6.97349 80.358 8.34659C81.2765 9.7197 81.7453 11.3106 81.7642 13.1193H75.0312Z" fill="black"/>
<path d="M101.438 13.1193C101.343 12.0777 100.921 11.268 100.173 10.6903C99.4347 10.1032 98.3788 9.80966 97.0057 9.80966C96.0966 9.80966 95.339 9.92803 94.733 10.1648C94.1269 10.4015 93.6723 10.7282 93.3693 11.1449C93.0663 11.5521 92.91 12.0208 92.9006 12.5511C92.8816 12.9867 92.9669 13.3703 93.1562 13.7017C93.3551 14.0331 93.6392 14.3267 94.0085 14.5824C94.3873 14.8286 94.8419 15.0464 95.3722 15.2358C95.9025 15.4252 96.4991 15.5909 97.1619 15.733L99.6619 16.3011C101.101 16.6136 102.37 17.0303 103.469 17.5511C104.577 18.072 105.505 18.6922 106.253 19.4119C107.01 20.1316 107.583 20.9602 107.972 21.8977C108.36 22.8352 108.559 23.8864 108.568 25.0511C108.559 26.8883 108.095 28.465 107.176 29.7812C106.258 31.0975 104.937 32.1061 103.213 32.8068C101.499 33.5076 99.4299 33.858 97.0057 33.858C94.572 33.858 92.4508 33.4934 90.642 32.7642C88.8333 32.035 87.4271 30.9271 86.4233 29.4403C85.4195 27.9536 84.9034 26.0739 84.875 23.8011H91.608C91.6648 24.7386 91.9157 25.5199 92.3608 26.1449C92.8059 26.7699 93.4167 27.2434 94.1932 27.5653C94.9792 27.8873 95.8883 28.0483 96.9205 28.0483C97.8674 28.0483 98.6723 27.9205 99.3352 27.6648C100.008 27.4091 100.524 27.054 100.884 26.5994C101.243 26.1449 101.428 25.6241 101.438 25.0369C101.428 24.4877 101.258 24.0189 100.926 23.6307C100.595 23.233 100.083 22.892 99.392 22.608C98.7102 22.3144 97.839 22.0445 96.7784 21.7983L93.7386 21.0881C91.2197 20.5104 89.2358 19.5777 87.7869 18.2898C86.3381 16.9924 85.6184 15.2405 85.6278 13.0341C85.6184 11.2348 86.1013 9.65814 87.0767 8.30398C88.0521 6.94981 89.4015 5.89394 91.125 5.13636C92.8485 4.37879 94.8134 4 97.0199 4C99.2737 4 101.229 4.38352 102.886 5.15057C104.553 5.90814 105.846 6.97349 106.764 8.34659C107.683 9.7197 108.152 11.3106 108.17 13.1193H101.438Z" fill="black"/>
<path d="M112.119 33.4886V4.39773H119.151V27.7784H131.253V33.4886H112.119Z" fill="black"/>
<path d="M134.893 33.4886V4.39773H155.177V10.108H141.924V16.0739H154.14V21.7983H141.924V27.7784H155.177V33.4886H134.893Z" fill="black"/>
<path d="M21.5625 11.1193C21.4678 10.0777 21.0464 9.26799 20.2983 8.69034C19.5597 8.10322 18.5038 7.80966 17.1307 7.80966C16.2216 7.80966 15.464 7.92803 14.858 8.16477C14.2519 8.40152 13.7973 8.72822 13.4943 9.14489C13.1913 9.55208 13.035 10.0208 13.0256 10.5511C13.0066 10.9867 13.0919 11.3703 13.2812 11.7017C13.4801 12.0331 13.7642 12.3267 14.1335 12.5824C14.5123 12.8286 14.9669 13.0464 15.4972 13.2358C16.0275 13.4252 16.6241 13.5909 17.2869 13.733L19.7869 14.3011C21.2263 14.6136 22.4953 15.0303 23.5938 15.5511C24.7017 16.072 25.6297 16.6922 26.3778 17.4119C27.1354 18.1316 27.7083 18.9602 28.0966 19.8977C28.4849 20.8352 28.6837 21.8864 28.6932 23.0511C28.6837 24.8883 28.2197 26.465 27.3011 27.7812C26.3826 29.0975 25.0616 30.1061 23.3381 30.8068C21.6241 31.5076 19.5549 31.858 17.1307 31.858C14.697 31.858 12.5758 31.4934 10.767 30.7642C8.95833 30.035 7.55208 28.9271 6.5483 27.4403C5.54451 25.9536 5.02841 24.0739 5 21.8011H11.733C11.7898 22.7386 12.0407 23.5199 12.4858 24.1449C12.9309 24.7699 13.5417 25.2434 14.3182 25.5653C15.1042 25.8873 16.0133 26.0483 17.0455 26.0483C17.9924 26.0483 18.7973 25.9205 19.4602 25.6648C20.1326 25.4091 20.6487 25.054 21.0085 24.5994C21.3684 24.1449 21.553 23.6241 21.5625 23.0369C21.553 22.4877 21.3826 22.0189 21.0511 21.6307C20.7197 21.233 20.2083 20.892 19.517 20.608C18.8352 20.3144 17.964 20.0445 16.9034 19.7983L13.8636 19.0881C11.3447 18.5104 9.3608 17.5777 7.91193 16.2898C6.46307 14.9924 5.74337 13.2405 5.75284 11.0341C5.74337 9.23485 6.22633 7.65814 7.2017 6.30398C8.17708 4.94981 9.52652 3.89394 11.25 3.13636C12.9735 2.37879 14.9384 2 17.1449 2C19.3987 2 21.3542 2.38352 23.0114 3.15057C24.678 3.90814 25.9706 4.97349 26.8892 6.34659C27.8078 7.7197 28.2765 9.31061 28.2955 11.1193H21.5625Z" fill="white"/>
<path d="M37.6385 31.4886H30.0817L39.897 2.39773H49.2578L59.0732 31.4886H51.5163L44.6839 9.72727H44.4567L37.6385 31.4886ZM39.5522 25.3807H49.5163L48.0017 20.2945H41.1458L39.5522 25.3807Z" fill="white"/>
<path d="M77.0312 11.1193C76.9366 10.0777 76.5151 9.26799 75.767 8.69034C75.0284 8.10322 73.9725 7.80966 72.5994 7.80966C71.6903 7.80966 70.9328 7.92803 70.3267 8.16477C69.7206 8.40152 69.2661 8.72822 68.9631 9.14489C68.66 9.55208 68.5038 10.0208 68.4943 10.5511C68.4754 10.9867 68.5606 11.3703 68.75 11.7017C68.9489 12.0331 69.233 12.3267 69.6023 12.5824C69.9811 12.8286 70.4356 13.0464 70.9659 13.2358C71.4962 13.4252 72.0928 13.5909 72.7557 13.733L75.2557 14.3011C76.6951 14.6136 77.964 15.0303 79.0625 15.5511C80.1705 16.072 81.0985 16.6922 81.8466 17.4119C82.6042 18.1316 83.1771 18.9602 83.5653 19.8977C83.9536 20.8352 84.1525 21.8864 84.1619 23.0511C84.1525 24.8883 83.6885 26.465 82.7699 27.7812C81.8513 29.0975 80.5303 30.1061 78.8068 30.8068C77.0928 31.5076 75.0237 31.858 72.5994 31.858C70.1657 31.858 68.0445 31.4934 66.2358 30.7642C64.4271 30.035 63.0208 28.9271 62.017 27.4403C61.0133 25.9536 60.4972 24.0739 60.4688 21.8011H67.2017C67.2585 22.7386 67.5095 23.5199 67.9545 24.1449C68.3996 24.7699 69.0104 25.2434 69.7869 25.5653C70.5729 25.8873 71.482 26.0483 72.5142 26.0483C73.4612 26.0483 74.2661 25.9205 74.929 25.6648C75.6013 25.4091 76.1174 25.054 76.4773 24.5994C76.8371 24.1449 77.0218 23.6241 77.0312 23.0369C77.0218 22.4877 76.8513 22.0189 76.5199 21.6307C76.1884 21.233 75.6771 20.892 74.9858 20.608C74.304 20.3144 73.4328 20.0445 72.3722 19.7983L69.3324 19.0881C66.8135 18.5104 64.8295 17.5777 63.3807 16.2898C61.9318 14.9924 61.2121 13.2405 61.2216 11.0341C61.2121 9.23485 61.6951 7.65814 62.6705 6.30398C63.6458 4.94981 64.9953 3.89394 66.7188 3.13636C68.4422 2.37879 70.4072 2 72.6136 2C74.8674 2 76.8229 2.38352 78.4801 3.15057C80.1468 3.90814 81.4394 4.97349 82.358 6.34659C83.2765 7.7197 83.7453 9.31061 83.7642 11.1193H77.0312Z" fill="white"/>
<path d="M103.438 11.1193C103.343 10.0777 102.921 9.26799 102.173 8.69034C101.435 8.10322 100.379 7.80966 99.0057 7.80966C98.0966 7.80966 97.339 7.92803 96.733 8.16477C96.1269 8.40152 95.6723 8.72822 95.3693 9.14489C95.0663 9.55208 94.91 10.0208 94.9006 10.5511C94.8816 10.9867 94.9669 11.3703 95.1562 11.7017C95.3551 12.0331 95.6392 12.3267 96.0085 12.5824C96.3873 12.8286 96.8419 13.0464 97.3722 13.2358C97.9025 13.4252 98.4991 13.5909 99.1619 13.733L101.662 14.3011C103.101 14.6136 104.37 15.0303 105.469 15.5511C106.577 16.072 107.505 16.6922 108.253 17.4119C109.01 18.1316 109.583 18.9602 109.972 19.8977C110.36 20.8352 110.559 21.8864 110.568 23.0511C110.559 24.8883 110.095 26.465 109.176 27.7812C108.258 29.0975 106.937 30.1061 105.213 30.8068C103.499 31.5076 101.43 31.858 99.0057 31.858C96.572 31.858 94.4508 31.4934 92.642 30.7642C90.8333 30.035 89.4271 28.9271 88.4233 27.4403C87.4195 25.9536 86.9034 24.0739 86.875 21.8011H93.608C93.6648 22.7386 93.9157 23.5199 94.3608 24.1449C94.8059 24.7699 95.4167 25.2434 96.1932 25.5653C96.9792 25.8873 97.8883 26.0483 98.9205 26.0483C99.8674 26.0483 100.672 25.9205 101.335 25.6648C102.008 25.4091 102.524 25.054 102.884 24.5994C103.243 24.1449 103.428 23.6241 103.438 23.0369C103.428 22.4877 103.258 22.0189 102.926 21.6307C102.595 21.233 102.083 20.892 101.392 20.608C100.71 20.3144 99.839 20.0445 98.7784 19.7983L95.7386 19.0881C93.2197 18.5104 91.2358 17.5777 89.7869 16.2898C88.3381 14.9924 87.6184 13.2405 87.6278 11.0341C87.6184 9.23485 88.1013 7.65814 89.0767 6.30398C90.0521 4.94981 91.4015 3.89394 93.125 3.13636C94.8485 2.37879 96.8134 2 99.0199 2C101.274 2 103.229 2.38352 104.886 3.15057C106.553 3.90814 107.846 4.97349 108.764 6.34659C109.683 7.7197 110.152 9.31061 110.17 11.1193H103.438Z" fill="white"/>
<path d="M114.119 31.4886V2.39773H121.151V25.7784H133.253V31.4886H114.119Z" fill="white"/>
<path d="M136.893 31.4886V2.39773H157.177V8.10795H143.924V14.0739H156.14V19.7983H143.924V25.7784H157.177V31.4886H136.893Z" fill="white"/>
<path d="M19.5625 13.1193C19.4678 12.0777 19.0464 11.268 18.2983 10.6903C17.5597 10.1032 16.5038 9.80966 15.1307 9.80966C14.2216 9.80966 13.464 9.92803 12.858 10.1648C12.2519 10.4015 11.7973 10.7282 11.4943 11.1449C11.1913 11.5521 11.035 12.0208 11.0256 12.5511C11.0066 12.9867 11.0919 13.3703 11.2812 13.7017C11.4801 14.0331 11.7642 14.3267 12.1335 14.5824C12.5123 14.8286 12.9669 15.0464 13.4972 15.2358C14.0275 15.4252 14.6241 15.5909 15.2869 15.733L17.7869 16.3011C19.2263 16.6136 20.4953 17.0303 21.5938 17.5511C22.7017 18.072 23.6297 18.6922 24.3778 19.4119C25.1354 20.1316 25.7083 20.9602 26.0966 21.8977C26.4849 22.8352 26.6837 23.8864 26.6932 25.0511C26.6837 26.8883 26.2197 28.465 25.3011 29.7812C24.3826 31.0975 23.0616 32.1061 21.3381 32.8068C19.6241 33.5076 17.5549 33.858 15.1307 33.858C12.697 33.858 10.5758 33.4934 8.76705 32.7642C6.95833 32.035 5.55208 30.9271 4.5483 29.4403C3.54451 27.9536 3.02841 26.0739 3 23.8011H9.73295C9.78977 24.7386 10.0407 25.5199 10.4858 26.1449C10.9309 26.7699 11.5417 27.2434 12.3182 27.5653C13.1042 27.8873 14.0133 28.0483 15.0455 28.0483C15.9924 28.0483 16.7973 27.9205 17.4602 27.6648C18.1326 27.4091 18.6487 27.054 19.0085 26.5994C19.3684 26.1449 19.553 25.6241 19.5625 25.0369C19.553 24.4877 19.3826 24.0189 19.0511 23.6307C18.7197 23.233 18.2083 22.892 17.517 22.608C16.8352 22.3144 15.964 22.0445 14.9034 21.7983L11.8636 21.0881C9.3447 20.5104 7.3608 19.5777 5.91193 18.2898C4.46307 16.9924 3.74337 15.2405 3.75284 13.0341C3.74337 11.2348 4.22633 9.65814 5.2017 8.30398C6.17708 6.94981 7.52652 5.89394 9.25 5.13636C10.9735 4.37879 12.9384 4 15.1449 4C17.3987 4 19.3542 4.38352 21.0114 5.15057C22.678 5.90814 23.9706 6.97349 24.8892 8.34659C25.8078 9.7197 26.2765 11.3106 26.2955 13.1193H19.5625Z" stroke="black" stroke-width="4" mask="url(#path-1-outside-1_102_36)"/>
<path d="M35.6385 33.4886H28.0817L37.897 4.39773H47.2578L57.0732 33.4886H49.5163L42.6839 11.7273H42.4567L35.6385 33.4886ZM34.63 22.0398H50.4254V27.3807H34.63V22.0398Z" stroke="black" stroke-width="4" mask="url(#path-1-outside-1_102_36)"/>
<path d="M75.0312 13.1193C74.9366 12.0777 74.5151 11.268 73.767 10.6903C73.0284 10.1032 71.9725 9.80966 70.5994 9.80966C69.6903 9.80966 68.9328 9.92803 68.3267 10.1648C67.7206 10.4015 67.2661 10.7282 66.9631 11.1449C66.66 11.5521 66.5038 12.0208 66.4943 12.5511C66.4754 12.9867 66.5606 13.3703 66.75 13.7017C66.9489 14.0331 67.233 14.3267 67.6023 14.5824C67.9811 14.8286 68.4356 15.0464 68.9659 15.2358C69.4962 15.4252 70.0928 15.5909 70.7557 15.733L73.2557 16.3011C74.6951 16.6136 75.964 17.0303 77.0625 17.5511C78.1705 18.072 79.0985 18.6922 79.8466 19.4119C80.6042 20.1316 81.1771 20.9602 81.5653 21.8977C81.9536 22.8352 82.1525 23.8864 82.1619 25.0511C82.1525 26.8883 81.6885 28.465 80.7699 29.7812C79.8513 31.0975 78.5303 32.1061 76.8068 32.8068C75.0928 33.5076 73.0237 33.858 70.5994 33.858C68.1657 33.858 66.0445 33.4934 64.2358 32.7642C62.4271 32.035 61.0208 30.9271 60.017 29.4403C59.0133 27.9536 58.4972 26.0739 58.4688 23.8011H65.2017C65.2585 24.7386 65.5095 25.5199 65.9545 26.1449C66.3996 26.7699 67.0104 27.2434 67.7869 27.5653C68.5729 27.8873 69.482 28.0483 70.5142 28.0483C71.4612 28.0483 72.2661 27.9205 72.929 27.6648C73.6013 27.4091 74.1174 27.054 74.4773 26.5994C74.8371 26.1449 75.0218 25.6241 75.0312 25.0369C75.0218 24.4877 74.8513 24.0189 74.5199 23.6307C74.1884 23.233 73.6771 22.892 72.9858 22.608C72.304 22.3144 71.4328 22.0445 70.3722 21.7983L67.3324 21.0881C64.8135 20.5104 62.8295 19.5777 61.3807 18.2898C59.9318 16.9924 59.2121 15.2405 59.2216 13.0341C59.2121 11.2348 59.6951 9.65814 60.6705 8.30398C61.6458 6.94981 62.9953 5.89394 64.7188 5.13636C66.4422 4.37879 68.4072 4 70.6136 4C72.8674 4 74.8229 4.38352 76.4801 5.15057C78.1468 5.90814 79.4394 6.97349 80.358 8.34659C81.2765 9.7197 81.7453 11.3106 81.7642 13.1193H75.0312Z" stroke="black" stroke-width="4" mask="url(#path-1-outside-1_102_36)"/>
<path d="M101.438 13.1193C101.343 12.0777 100.921 11.268 100.173 10.6903C99.4347 10.1032 98.3788 9.80966 97.0057 9.80966C96.0966 9.80966 95.339 9.92803 94.733 10.1648C94.1269 10.4015 93.6723 10.7282 93.3693 11.1449C93.0663 11.5521 92.91 12.0208 92.9006 12.5511C92.8816 12.9867 92.9669 13.3703 93.1562 13.7017C93.3551 14.0331 93.6392 14.3267 94.0085 14.5824C94.3873 14.8286 94.8419 15.0464 95.3722 15.2358C95.9025 15.4252 96.4991 15.5909 97.1619 15.733L99.6619 16.3011C101.101 16.6136 102.37 17.0303 103.469 17.5511C104.577 18.072 105.505 18.6922 106.253 19.4119C107.01 20.1316 107.583 20.9602 107.972 21.8977C108.36 22.8352 108.559 23.8864 108.568 25.0511C108.559 26.8883 108.095 28.465 107.176 29.7812C106.258 31.0975 104.937 32.1061 103.213 32.8068C101.499 33.5076 99.4299 33.858 97.0057 33.858C94.572 33.858 92.4508 33.4934 90.642 32.7642C88.8333 32.035 87.4271 30.9271 86.4233 29.4403C85.4195 27.9536 84.9034 26.0739 84.875 23.8011H91.608C91.6648 24.7386 91.9157 25.5199 92.3608 26.1449C92.8059 26.7699 93.4167 27.2434 94.1932 27.5653C94.9792 27.8873 95.8883 28.0483 96.9205 28.0483C97.8674 28.0483 98.6723 27.9205 99.3352 27.6648C100.008 27.4091 100.524 27.054 100.884 26.5994C101.243 26.1449 101.428 25.6241 101.438 25.0369C101.428 24.4877 101.258 24.0189 100.926 23.6307C100.595 23.233 100.083 22.892 99.392 22.608C98.7102 22.3144 97.839 22.0445 96.7784 21.7983L93.7386 21.0881C91.2197 20.5104 89.2358 19.5777 87.7869 18.2898C86.3381 16.9924 85.6184 15.2405 85.6278 13.0341C85.6184 11.2348 86.1013 9.65814 87.0767 8.30398C88.0521 6.94981 89.4015 5.89394 91.125 5.13636C92.8485 4.37879 94.8134 4 97.0199 4C99.2737 4 101.229 4.38352 102.886 5.15057C104.553 5.90814 105.846 6.97349 106.764 8.34659C107.683 9.7197 108.152 11.3106 108.17 13.1193H101.438Z" stroke="black" stroke-width="4" mask="url(#path-1-outside-1_102_36)"/>
<path d="M112.119 33.4886V4.39773H119.151V27.7784H131.253V33.4886H112.119Z" stroke="black" stroke-width="4" mask="url(#path-1-outside-1_102_36)"/>
<path d="M134.893 33.4886V4.39773H155.177V10.108H141.924V16.0739H154.14V21.7983H141.924V27.7784H155.177V33.4886H134.893Z" stroke="black" stroke-width="4" mask="url(#path-1-outside-1_102_36)"/>
<path d="M21.5625 11.1193C21.4678 10.0777 21.0464 9.26799 20.2983 8.69034C19.5597 8.10322 18.5038 7.80966 17.1307 7.80966C16.2216 7.80966 15.464 7.92803 14.858 8.16477C14.2519 8.40152 13.7973 8.72822 13.4943 9.14489C13.1913 9.55208 13.035 10.0208 13.0256 10.5511C13.0066 10.9867 13.0919 11.3703 13.2812 11.7017C13.4801 12.0331 13.7642 12.3267 14.1335 12.5824C14.5123 12.8286 14.9669 13.0464 15.4972 13.2358C16.0275 13.4252 16.6241 13.5909 17.2869 13.733L19.7869 14.3011C21.2263 14.6136 22.4953 15.0303 23.5938 15.5511C24.7017 16.072 25.6297 16.6922 26.3778 17.4119C27.1354 18.1316 27.7083 18.9602 28.0966 19.8977C28.4849 20.8352 28.6837 21.8864 28.6932 23.0511C28.6837 24.8883 28.2197 26.465 27.3011 27.7812C26.3826 29.0975 25.0616 30.1061 23.3381 30.8068C21.6241 31.5076 19.5549 31.858 17.1307 31.858C14.697 31.858 12.5758 31.4934 10.767 30.7642C8.95833 30.035 7.55208 28.9271 6.5483 27.4403C5.54451 25.9536 5.02841 24.0739 5 21.8011H11.733C11.7898 22.7386 12.0407 23.5199 12.4858 24.1449C12.9309 24.7699 13.5417 25.2434 14.3182 25.5653C15.1042 25.8873 16.0133 26.0483 17.0455 26.0483C17.9924 26.0483 18.7973 25.9205 19.4602 25.6648C20.1326 25.4091 20.6487 25.054 21.0085 24.5994C21.3684 24.1449 21.553 23.6241 21.5625 23.0369C21.553 22.4877 21.3826 22.0189 21.0511 21.6307C20.7197 21.233 20.2083 20.892 19.517 20.608C18.8352 20.3144 17.964 20.0445 16.9034 19.7983L13.8636 19.0881C11.3447 18.5104 9.3608 17.5777 7.91193 16.2898C6.46307 14.9924 5.74337 13.2405 5.75284 11.0341C5.74337 9.23485 6.22633 7.65814 7.2017 6.30398C8.17708 4.94981 9.52652 3.89394 11.25 3.13636C12.9735 2.37879 14.9384 2 17.1449 2C19.3987 2 21.3542 2.38352 23.0114 3.15057C24.678 3.90814 25.9706 4.97349 26.8892 6.34659C27.8078 7.7197 28.2765 9.31061 28.2955 11.1193H21.5625Z" stroke="black" stroke-width="4" mask="url(#path-1-outside-1_102_36)"/>
<path d="M37.6385 31.4886H30.0817L39.897 2.39773H49.2578L59.0732 31.4886H51.5163L44.6839 9.72727H44.4567L37.6385 31.4886ZM39.5522 25.3807H49.5163L48.0017 20.2945H41.1458L39.5522 25.3807Z" stroke="black" stroke-width="4" mask="url(#path-1-outside-1_102_36)"/>
<path d="M77.0312 11.1193C76.9366 10.0777 76.5151 9.26799 75.767 8.69034C75.0284 8.10322 73.9725 7.80966 72.5994 7.80966C71.6903 7.80966 70.9328 7.92803 70.3267 8.16477C69.7206 8.40152 69.2661 8.72822 68.9631 9.14489C68.66 9.55208 68.5038 10.0208 68.4943 10.5511C68.4754 10.9867 68.5606 11.3703 68.75 11.7017C68.9489 12.0331 69.233 12.3267 69.6023 12.5824C69.9811 12.8286 70.4356 13.0464 70.9659 13.2358C71.4962 13.4252 72.0928 13.5909 72.7557 13.733L75.2557 14.3011C76.6951 14.6136 77.964 15.0303 79.0625 15.5511C80.1705 16.072 81.0985 16.6922 81.8466 17.4119C82.6042 18.1316 83.1771 18.9602 83.5653 19.8977C83.9536 20.8352 84.1525 21.8864 84.1619 23.0511C84.1525 24.8883 83.6885 26.465 82.7699 27.7812C81.8513 29.0975 80.5303 30.1061 78.8068 30.8068C77.0928 31.5076 75.0237 31.858 72.5994 31.858C70.1657 31.858 68.0445 31.4934 66.2358 30.7642C64.4271 30.035 63.0208 28.9271 62.017 27.4403C61.0133 25.9536 60.4972 24.0739 60.4688 21.8011H67.2017C67.2585 22.7386 67.5095 23.5199 67.9545 24.1449C68.3996 24.7699 69.0104 25.2434 69.7869 25.5653C70.5729 25.8873 71.482 26.0483 72.5142 26.0483C73.4612 26.0483 74.2661 25.9205 74.929 25.6648C75.6013 25.4091 76.1174 25.054 76.4773 24.5994C76.8371 24.1449 77.0218 23.6241 77.0312 23.0369C77.0218 22.4877 76.8513 22.0189 76.5199 21.6307C76.1884 21.233 75.6771 20.892 74.9858 20.608C74.304 20.3144 73.4328 20.0445 72.3722 19.7983L69.3324 19.0881C66.8135 18.5104 64.8295 17.5777 63.3807 16.2898C61.9318 14.9924 61.2121 13.2405 61.2216 11.0341C61.2121 9.23485 61.6951 7.65814 62.6705 6.30398C63.6458 4.94981 64.9953 3.89394 66.7188 3.13636C68.4422 2.37879 70.4072 2 72.6136 2C74.8674 2 76.8229 2.38352 78.4801 3.15057C80.1468 3.90814 81.4394 4.97349 82.358 6.34659C83.2765 7.7197 83.7453 9.31061 83.7642 11.1193H77.0312Z" stroke="black" stroke-width="4" mask="url(#path-1-outside-1_102_36)"/>
<path d="M103.438 11.1193C103.343 10.0777 102.921 9.26799 102.173 8.69034C101.435 8.10322 100.379 7.80966 99.0057 7.80966C98.0966 7.80966 97.339 7.92803 96.733 8.16477C96.1269 8.40152 95.6723 8.72822 95.3693 9.14489C95.0663 9.55208 94.91 10.0208 94.9006 10.5511C94.8816 10.9867 94.9669 11.3703 95.1562 11.7017C95.3551 12.0331 95.6392 12.3267 96.0085 12.5824C96.3873 12.8286 96.8419 13.0464 97.3722 13.2358C97.9025 13.4252 98.4991 13.5909 99.1619 13.733L101.662 14.3011C103.101 14.6136 104.37 15.0303 105.469 15.5511C106.577 16.072 107.505 16.6922 108.253 17.4119C109.01 18.1316 109.583 18.9602 109.972 19.8977C110.36 20.8352 110.559 21.8864 110.568 23.0511C110.559 24.8883 110.095 26.465 109.176 27.7812C108.258 29.0975 106.937 30.1061 105.213 30.8068C103.499 31.5076 101.43 31.858 99.0057 31.858C96.572 31.858 94.4508 31.4934 92.642 30.7642C90.8333 30.035 89.4271 28.9271 88.4233 27.4403C87.4195 25.9536 86.9034 24.0739 86.875 21.8011H93.608C93.6648 22.7386 93.9157 23.5199 94.3608 24.1449C94.8059 24.7699 95.4167 25.2434 96.1932 25.5653C96.9792 25.8873 97.8883 26.0483 98.9205 26.0483C99.8674 26.0483 100.672 25.9205 101.335 25.6648C102.008 25.4091 102.524 25.054 102.884 24.5994C103.243 24.1449 103.428 23.6241 103.438 23.0369C103.428 22.4877 103.258 22.0189 102.926 21.6307C102.595 21.233 102.083 20.892 101.392 20.608C100.71 20.3144 99.839 20.0445 98.7784 19.7983L95.7386 19.0881C93.2197 18.5104 91.2358 17.5777 89.7869 16.2898C88.3381 14.9924 87.6184 13.2405 87.6278 11.0341C87.6184 9.23485 88.1013 7.65814 89.0767 6.30398C90.0521 4.94981 91.4015 3.89394 93.125 3.13636C94.8485 2.37879 96.8134 2 99.0199 2C101.274 2 103.229 2.38352 104.886 3.15057C106.553 3.90814 107.846 4.97349 108.764 6.34659C109.683 7.7197 110.152 9.31061 110.17 11.1193H103.438Z" stroke="black" stroke-width="4" mask="url(#path-1-outside-1_102_36)"/>
<path d="M114.119 31.4886V2.39773H121.151V25.7784H133.253V31.4886H114.119Z" stroke="black" stroke-width="4" mask="url(#path-1-outside-1_102_36)"/>
<path d="M136.893 31.4886V2.39773H157.177V8.10795H143.924V14.0739H156.14V19.7983H143.924V25.7784H157.177V31.4886H136.893Z" stroke="black" stroke-width="4" mask="url(#path-1-outside-1_102_36)"/>
</svg>
